<svg width="1537.100146484375px" height="320.4800109863281px" xmlns="http://www.w3.org/2000/svg" viewBox="-518.5500732421875 -85.24000549316406 1537.100146484375 320.4800109863281" style="background: rgba(0, 0, 0, 0);" preserveAspectRatio="xMidYMid"><defs><filter id="editing-metal-beveled"><feGaussianBlur stdDeviation="4" in="SourceAlpha" result="blur"></feGaussianBlur><feSpecularLighting surfaceScale="5" specularConstant="0.8" specularExponent="7.5" lighting-color="#000000" in="blur" result="specular"><fePointLight x="-250" y="-50" z="300"></fePointLight></feSpecularLighting><feComposite operator="in" in="specular" in2="SourceAlpha" result="comp"></feComposite><feComposite in="SourceGraphic" in2="comp" operator="arithmetic" k1="0" k2="1" k3="1" k4="0"></feComposite></filter></defs><g filter="url(#editing-metal-beveled)"><g transform="translate(-307.63496685028076, 137.39999771118164)"><path d="M45.28-49.37L45.28-54.36L74.26-54.36L74.26-54.36Q81.40-54.36 86.36-59.18L86.36-59.18L86.36-59.18Q91.32-64.00 91.32-72.80L91.32-72.80L91.32-72.80Q91.32-79.39 86.12-84.62L86.12-84.62L86.12-84.62Q80.92-89.86 74.26-89.86L74.26-89.86L31.41-89.86L31.41 0L26.42 0L26.42-94.85L74.26-94.85L74.26-94.85Q83.00-94.85 89.65-88.13L89.65-88.13L89.65-88.13Q96.31-81.40 96.31-72.80L96.31-72.80L96.31-72.80Q96.31-62.19 89.86-55.78L89.86-55.78L89.86-55.78Q83.41-49.37 74.26-49.37L74.26-49.37L45.28-49.37ZM45.28-39.38L45.28-44.38L74.26-44.38L74.26-44.38Q81.47-44.38 87.61-47.88L87.61-47.88L87.61-47.88Q93.74-51.38 97.52-57.96L97.52-57.96L97.52-57.96Q101.30-64.55 101.30-72.80L101.30-72.80L101.30-72.80Q101.30-83.48 93.15-91.66L93.15-91.66L93.15-91.66Q85.01-99.84 74.26-99.84L74.26-99.84L21.42-99.84L21.42 0L16.43 0L16.43-104.84L74.26-104.84L74.26-104.84Q82.65-104.84 90.07-100.40L90.07-100.40L90.07-100.40Q97.49-95.96 101.89-88.54L101.89-88.54L101.89-88.54Q106.29-81.12 106.29-72.80L106.29-72.80L106.29-72.80Q106.29-63.37 101.85-55.64L101.85-55.64L101.85-55.64Q97.42-47.91 90.10-43.65L90.10-43.65L90.10-43.65Q82.79-39.38 74.26-39.38L74.26-39.38L45.28-39.38ZM45.28-29.40L45.28-34.39L74.26-34.39L74.26-34.39Q81.68-34.39 88.47-37.34L88.47-37.34L88.47-37.34Q95.27-40.28 100.29-45.31L100.29-45.31L100.29-45.31Q105.32-50.34 108.30-57.51L108.30-57.51L108.30-57.51Q111.28-64.69 111.28-72.80L111.28-72.80L111.28-72.80Q111.28-82.51 106.22-91.07L106.22-91.07L106.22-91.07Q101.16-99.64 92.60-104.73L92.60-104.73L92.60-104.73Q84.04-109.83 74.26-109.83L74.26-109.83L11.44-109.83L11.44 0L6.45 0L6.45-114.82L74.26-114.82L74.26-114.82Q85.35-114.82 95.06-109.03L95.06-109.03L95.06-109.03Q104.77-103.24 110.52-93.53L110.52-93.53L110.52-93.53Q116.28-83.83 116.28-72.80L116.28-72.80L116.28-72.80Q116.28-62.96 112.88-54.67L112.88-54.67L112.88-54.67Q109.48-46.39 103.73-40.91L103.73-40.91L103.73-40.91Q97.97-35.43 90.34-32.41L90.34-32.41L90.34-32.41Q82.72-29.40 74.26-29.40L74.26-29.40L45.28-29.40ZM41.39-79.88L41.39 0L36.40 0L36.40-84.87L74.26-84.87L74.26-84.87Q79.18-84.87 82.75-81.26L82.75-81.26L82.75-81.26Q86.32-77.66 86.32-72.80L86.32-72.80L86.32-72.80Q86.32-59.35 74.26-59.35L74.26-59.35L45.28-59.35L45.28-64.34L74.26-64.34L74.26-64.34Q77.59-64.34 79.46-66.22L79.46-66.22L79.46-66.22Q81.33-68.09 81.33-72.80L81.33-72.80L81.33-72.80Q81.33-75.85 79.29-77.86L79.29-77.86L79.29-77.86Q77.24-79.88 74.26-79.88L74.26-79.88L41.39-79.88ZM197.88-33.70L176.81-33.70L178.82-38.69L195.87-38.69L197.88-33.70ZM201.91-23.71L172.92-23.71L174.87-28.71L199.76-28.71L201.91-23.71ZM205.79-13.73L169.04-13.73L170.98-18.72L203.71-18.72L205.79-13.73ZM171.19-108.09L128.48 0L123.07 0L168.49-114.82L173.89-114.82L219.24 0L213.90 0L171.19-108.09ZM133.82 0L171.81-96.24L174.66-89.86L139.16 0L133.82 0ZM144.57 0L177.36-83.06L180.00-76.20L149.97 0L144.57 0ZM155.31 0L182.63-69.34L185.27-62.33L160.65 0L155.31 0ZM206.07-114.82L251.48 0L246.07 0L200.73-114.82L206.07-114.82ZM189.98-114.82L195.32-114.82L240.73 0L235.40 0L189.98-114.82ZM179.23-114.82L184.57-114.82L229.99 0L224.58 0L179.23-114.82ZM297.94-52.14L297.94-57.13L328.03-57.13L328.03-57.13Q334.89-57.13 339.64-61.57L339.64-61.57L339.64-61.57Q344.39-66.01 344.39-74.19L344.39-74.19L344.39-74.19Q344.39-80.22 339.40-85.04L339.40-85.04L339.40-85.04Q334.41-89.86 328.03-89.86L328.03-89.86L285.18-89.86L285.18 0L280.19 0L280.19-94.85L328.03-94.85L328.03-94.85Q336.49-94.85 342.94-88.58L342.94-88.58L342.94-88.58Q349.38-82.30 349.38-74.19L349.38-74.19L349.38-74.19Q349.38-64.21 343.14-58.17L343.14-58.17L343.14-58.17Q336.90-52.14 328.03-52.14L328.03-52.14L297.94-52.14ZM297.94-42.16L297.94-47.15L328.03-47.15L328.03-47.15Q338.84-47.15 346.61-54.74L346.61-54.74L346.61-54.74Q354.38-62.33 354.38-74.19L354.38-74.19L354.38-74.19Q354.38-84.38 346.44-92.11L346.44-92.11L346.44-92.11Q338.50-99.84 328.03-99.84L328.03-99.84L275.19-99.84L275.19 0L270.20 0L270.20-104.84L328.03-104.84L328.03-104.84Q336.28-104.84 343.52-100.61L343.52-100.61L343.52-100.61Q350.77-96.38 355.07-89.27L355.07-89.27L355.07-89.27Q359.37-82.16 359.37-74.19L359.37-74.19L359.37-74.19Q359.37-60.53 350.11-51.34L350.11-51.34L350.11-51.34Q340.86-42.16 328.03-42.16L328.03-42.16L297.94-42.16ZM297.94-32.17L297.94-37.16L328.03-37.16L328.03-37.16Q337.74-37.16 346.06-41.95L346.06-41.95L346.06-41.95Q354.38-46.73 359.37-55.30L359.37-55.30L359.37-55.30Q364.36-63.86 364.36-74.19L364.36-74.19L364.36-74.19Q364.36-83.55 359.40-91.77L359.40-91.77L359.40-91.77Q354.45-99.98 346.06-104.91L346.06-104.91L346.06-104.91Q337.67-109.83 328.03-109.83L328.03-109.83L265.21-109.83L265.21 0L260.22 0L260.22-114.82L328.03-114.82L328.03-114.82Q338.91-114.82 348.48-109.24L348.48-109.24L348.48-109.24Q358.05-103.66 363.70-94.26L363.70-94.26L363.70-94.26Q369.35-84.87 369.35-74.19L369.35-74.19L369.35-74.19Q369.35-61.85 364.05-52.49L364.05-52.49L364.05-52.49Q358.74-43.13 349.66-37.86L349.66-37.86L362.56 0L357.29 0L344.95-35.50L344.95-35.50Q342.17-34.39 340.72-33.97L340.72-33.97L352.30 0L347.03 0L335.72-32.80L335.72-32.80Q335.10-32.66 331.29-32.31L331.29-32.31L342.03 0L336.76 0L326.16-32.17L321.65-32.17L331.77 0L326.50 0L316.31-32.17L297.94-32.17ZM295.16-79.88L295.16 0L290.17 0L290.17-84.87L328.03-84.87L328.03-84.87Q332.67-84.87 336.04-81.71L336.04-81.71L336.04-81.71Q339.40-78.56 339.40-74.19L339.40-74.19L339.40-74.19Q339.40-62.13 328.03-62.13L328.03-62.13L297.94-62.13L297.94-67.12L328.03-67.12L328.03-67.12Q331.01-67.12 332.71-68.68L332.71-68.68L332.71-68.68Q334.41-70.24 334.41-74.19L334.41-74.19L334.41-74.19Q334.41-76.62 332.57-78.25L332.57-78.25L332.57-78.25Q330.73-79.88 328.03-79.88L328.03-79.88L295.16-79.88ZM450.68-33.70L429.61-33.70L431.62-38.69L448.67-38.69L450.68-33.70ZM454.71-23.71L425.72-23.71L427.66-28.71L452.56-28.71L454.71-23.71ZM458.59-13.73L421.84-13.73L423.78-18.72L456.51-18.72L458.59-13.73ZM423.99-108.09L381.28 0L375.87 0L421.29-114.82L426.69-114.82L472.04 0L466.70 0L423.99-108.09ZM386.62 0L424.61-96.24L427.46-89.86L391.96 0L386.62 0ZM397.36 0L430.16-83.06L432.79-76.20L402.77 0L397.36 0ZM408.11 0L435.43-69.34L438.06-62.33L413.45 0L408.11 0ZM458.87-114.82L504.28 0L498.87 0L453.53-114.82L458.87-114.82ZM442.78-114.82L448.12-114.82L493.53 0L488.19 0L442.78-114.82ZM432.03-114.82L437.37-114.82L482.79 0L477.38 0L432.03-114.82ZM559.40-69.89L559.40-69.89L551.01-69.89L551.01-69.89Q545.67-69.89 543.32-72.63L543.32-72.63L543.32-72.63Q540.96-75.37 540.96-79.88L540.96-79.88L540.96-79.88Q540.96-89.86 555.87-89.86L555.87-89.86L555.87-89.86Q569.87-89.86 576.94-85.70L576.94-85.70L572.92-82.65L572.92-82.65Q568.07-84.87 555.87-84.87L555.87-84.87L555.87-84.87Q549.90-84.87 547.86-83.55L547.86-83.55L547.86-83.55Q545.81-82.23 545.81-79.88L545.81-79.88L545.81-79.88Q545.81-77.52 546.92-76.20L546.92-76.20L546.92-76.20Q548.03-74.88 551.01-74.88L551.01-74.88L559.61-74.88L559.61-74.88Q568.97-74.88 576.49-71.69L576.49-71.69L576.49-71.69Q584.02-68.50 588.87-62.99L588.87-62.99L588.87-62.99Q593.72-57.48 596.29-50.30L596.29-50.30L596.29-50.30Q598.85-43.13 598.85-34.95L598.85-34.95L598.85-34.95Q598.85-28.29 596.98-22.33L596.98-22.33L596.98-22.33Q595.11-16.36 591.33-11.37L591.33-11.37L591.33-11.37Q587.55-6.38 582.25-2.74L582.25-2.74L582.25-2.74Q576.94 0.90 569.63 2.95L569.63 2.95L569.63 2.95Q562.31 4.99 553.79 4.99L553.79 4.99L553.79 4.99Q540.40 4.99 528.72 0.94L528.72 0.94L528.72 0.94Q517.04-3.12 509.27-10.40L509.27-10.40L513.29-13.38L513.29-13.38Q520.37-7.00 531.01-3.50L531.01-3.50L531.01-3.50Q541.65 0 553.79 0L553.79 0L553.79 0Q563.29 0 570.95-2.74L570.95-2.74L570.95-2.74Q578.61-5.48 583.57-10.26L583.57-10.26L583.57-10.26Q588.52-15.05 591.19-21.36L591.19-21.36L591.19-21.36Q593.86-27.67 593.86-34.95L593.86-34.95L593.86-34.95Q593.86-44.58 589.98-52.38L589.98-52.38L589.98-52.38Q586.10-60.18 578.16-65.04L578.16-65.04L578.16-65.04Q570.22-69.89 559.40-69.89ZM551.01-64.90L551.01-64.90L558.92-64.90L558.92-64.90Q572.99-64.90 580.93-56.30L580.93-56.30L580.93-56.30Q588.87-47.70 588.87-34.95L588.87-34.95L588.87-34.95Q588.87-21.98 579.65-13.49L579.65-13.49L579.65-13.49Q570.43-4.99 553.79-4.99L553.79-4.99L553.79-4.99Q542.69-4.99 533.05-8.04L533.05-8.04L533.05-8.04Q523.42-11.09 517.04-16.64L517.04-16.64L520.92-19.76L520.92-19.76Q526.61-15.12 535.24-12.55L535.24-12.55L535.24-12.55Q543.87-9.98 553.79-9.98L553.79-9.98L553.79-9.98Q568.42-9.98 576.15-16.99L576.15-16.99L576.15-16.99Q583.88-23.99 583.88-34.95L583.88-34.95L583.88-34.95Q583.88-45.76 577.40-52.83L577.40-52.83L577.40-52.83Q570.91-59.91 558.85-59.91L558.85-59.91L551.01-59.91L551.01-59.91Q540.89-59.91 535.83-65.45L535.83-65.45L535.83-65.45Q530.77-71 530.77-79.88L530.77-79.88L530.77-79.88Q530.77-88.75 537.04-94.30L537.04-94.30L537.04-94.30Q543.32-99.84 555.87-99.84L555.87-99.84L555.87-99.84Q564.67-99.84 572.23-97.80L572.23-97.80L572.23-97.80Q579.79-95.75 584.71-91.94L584.71-91.94L580.76-88.89L580.76-88.89Q572.09-94.85 555.87-94.85L555.87-94.85L555.87-94.85Q545.40-94.85 540.58-90.73L540.58-90.73L540.58-90.73Q535.76-86.60 535.76-79.88L535.76-79.88L535.76-79.88Q535.76-73.08 539.33-68.99L539.33-68.99L539.33-68.99Q542.90-64.90 551.01-64.90ZM551.01-54.91L551.01-54.91L558.64-54.91L558.64-54.91Q568.76-54.91 573.82-49.30L573.82-49.30L573.82-49.30Q578.89-43.68 578.89-34.95L578.89-34.95L578.89-34.95Q578.89-26.07 572.61-20.52L572.61-20.52L572.61-20.52Q566.34-14.98 553.79-14.98L553.79-14.98L553.79-14.98Q544.98-14.98 537.39-17.02L537.39-17.02L537.39-17.02Q529.80-19.07 524.87-22.88L524.87-22.88L528.83-25.93L528.83-25.93Q537.49-19.97 553.79-19.97L553.79-19.97L553.79-19.97Q564.26-19.97 569.07-24.09L569.07-24.09L569.07-24.09Q573.89-28.22 573.89-34.95L573.89-34.95L573.89-34.95Q573.89-41.67 570.29-45.80L570.29-45.80L570.29-45.80Q566.68-49.92 558.57-49.92L558.57-49.92L551.01-49.92L551.01-49.92Q536.80-49.92 528.79-58.42L528.79-58.42L528.79-58.42Q520.78-66.91 520.78-79.88L520.78-79.88L520.78-79.88Q520.78-92.84 530.00-101.33L530.00-101.33L530.00-101.33Q539.23-109.83 555.87-109.83L555.87-109.83L555.87-109.83Q566.96-109.83 576.56-106.78L576.56-106.78L576.56-106.78Q586.17-103.73 592.54-98.18L592.54-98.18L588.66-95.06L588.66-95.06Q582.98-99.71 574.38-102.27L574.38-102.27L574.38-102.27Q565.78-104.84 555.87-104.84L555.87-104.84L555.87-104.84Q541.24-104.84 533.51-97.83L533.51-97.83L533.51-97.83Q525.77-90.83 525.77-79.88L525.77-79.88L525.77-79.88Q525.77-68.99 532.29-61.95L532.29-61.95L532.29-61.95Q538.81-54.91 551.01-54.91ZM551.01-44.93L551.01-44.93L558.64-44.93L558.64-44.93Q563.98-44.93 566.34-42.16L566.34-42.16L566.34-42.16Q568.69-39.38 568.69-34.95L568.69-34.95L568.69-34.95Q568.69-24.96 553.79-24.96L553.79-24.96L553.79-24.96Q539.71-24.96 532.64-29.12L532.64-29.12L536.66-32.17L536.66-32.17Q541.51-29.95 553.79-29.95L553.79-29.95L553.79-29.95Q559.75-29.95 561.79-31.27L561.79-31.27L561.79-31.27Q563.84-32.59 563.84-34.95L563.84-34.95L563.84-34.95Q563.84-37.23 562.70-38.59L562.70-38.59L562.70-38.59Q561.55-39.94 558.50-39.94L558.50-39.94L551.01-39.94L551.01-39.94Q541.44-39.94 533.71-43.06L533.71-43.06L533.71-43.06Q525.98-46.18 521.02-51.66L521.02-51.66L521.02-51.66Q516.07-57.13 513.43-64.34L513.43-64.34L513.43-64.34Q510.80-71.55 510.80-79.88L510.80-79.88L510.80-79.88Q510.80-86.53 512.67-92.49L512.67-92.49L512.67-92.49Q514.54-98.46 518.32-103.45L518.32-103.45L518.32-103.45Q522.10-108.44 527.40-112.08L527.40-112.08L527.40-112.08Q532.71-115.72 540.02-117.77L540.02-117.77L540.02-117.77Q547.34-119.81 555.87-119.81L555.87-119.81L555.87-119.81Q569.25-119.81 580.90-115.76L580.90-115.76L580.90-115.76Q592.54-111.70 600.31-104.42L600.31-104.42L596.29-101.44L596.29-101.44Q589.22-107.82 578.61-111.32L578.61-111.32L578.61-111.32Q568-114.82 555.87-114.82L555.87-114.82L555.87-114.82Q546.37-114.82 538.71-112.08L538.71-112.08L538.71-112.08Q531.04-109.34 526.09-104.56L526.09-104.56L526.09-104.56Q521.13-99.77 518.46-93.46L518.46-93.46L518.46-93.46Q515.79-87.16 515.79-79.88L515.79-79.88L515.79-79.88Q515.79-70.10 519.74-62.26L519.74-62.26L519.74-62.26Q523.69-54.43 531.81-49.68L531.81-49.68L531.81-49.68Q539.92-44.93 551.01-44.93ZM690.72-50.48L690.72-50.48L690.72-114.82L695.72-114.82L695.72-50.48L695.72-50.48Q695.72-39.94 687.40-32.45L687.40-32.45L687.40-32.45Q679.08-24.96 667.43-24.96L667.43-24.96L667.43-24.96Q655.78-24.96 647.46-32.45L647.46-32.45L647.46-32.45Q639.14-39.94 639.14-50.48L639.14-50.48L639.14-114.82L644.13-114.82L644.13-50.48L644.13-50.48Q644.13-42.02 650.96-35.99L650.96-35.99L650.96-35.99Q657.79-29.95 667.43-29.95L667.43-29.95L667.43-29.95Q677.07-29.95 683.90-35.99L683.90-35.99L683.90-35.99Q690.72-42.02 690.72-50.48ZM700.71-50.48L700.71-50.48L700.71-114.82L705.70-114.82L705.70-50.48L705.70-50.48Q705.70-43.27 702.65-36.71L702.65-36.71L702.65-36.71Q699.60-30.16 694.47-25.38L694.47-25.38L694.47-25.38Q689.34-20.59 682.27-17.78L682.27-17.78L682.27-17.78Q675.19-14.98 667.43-14.98L667.43-14.98L667.43-14.98Q659.66-14.98 652.59-17.78L652.59-17.78L652.59-17.78Q645.52-20.59 640.39-25.38L640.39-25.38L640.39-25.38Q635.26-30.16 632.21-36.71L632.21-36.71L632.21-36.71Q629.15-43.27 629.15-50.48L629.15-50.48L629.15-114.82L634.15-114.82L634.15-50.48L634.15-50.48Q634.15-42.23 638.62-35.19L638.62-35.19L638.62-35.19Q643.09-28.15 650.75-24.06L650.75-24.06L650.75-24.06Q658.41-19.97 667.43-19.97L667.43-19.97L667.43-19.97Q676.44-19.97 684.10-24.06L684.10-24.06L684.10-24.06Q691.76-28.15 696.24-35.19L696.24-35.19L696.24-35.19Q700.71-42.23 700.71-50.48ZM710.69-50.48L710.69-50.48L710.69-114.82L715.69-114.82L715.69-50.48L715.69-50.48Q715.69-41.25 711.84-32.83L711.84-32.83L711.84-32.83Q707.99-24.41 701.54-18.30L701.54-18.30L701.54-18.30Q695.09-12.20 686.15-8.60L686.15-8.60L686.15-8.60Q677.20-4.99 667.43-4.99L667.43-4.99L667.43-4.99Q657.65-4.99 648.71-8.60L648.71-8.60L648.71-8.60Q639.76-12.20 633.31-18.30L633.31-18.30L633.31-18.30Q626.87-24.41 623.02-32.83L623.02-32.83L623.02-32.83Q619.17-41.25 619.17-50.48L619.17-50.48L619.17-114.82L624.16-114.82L624.16-50.48L624.16-50.48Q624.16-39.52 629.99-30.20L629.99-30.20L629.99-30.20Q635.81-20.87 645.76-15.43L645.76-15.43L645.76-15.43Q655.71-9.98 667.43-9.98L667.43-9.98L667.43-9.98Q679.15-9.98 689.10-15.43L689.10-15.43L689.10-15.43Q699.04-20.87 704.87-30.20L704.87-30.20L704.87-30.20Q710.69-39.52 710.69-50.48ZM720.68-50.48L720.68-50.48L720.68-114.82L725.67-114.82L725.67-50.48L725.67-50.48Q725.67-35.50 717.83-22.71L717.83-22.71L717.83-22.71Q710-9.92 696.58-2.46L696.58-2.46L696.58-2.46Q683.17 4.99 667.43 4.99L667.43 4.99L667.43 4.99Q651.69 4.99 638.27-2.46L638.27-2.46L638.27-2.46Q624.86-9.92 617.02-22.71L617.02-22.71L617.02-22.71Q609.19-35.50 609.19-50.48L609.19-50.48L609.19-114.82L614.18-114.82L614.18-50.48L614.18-50.48Q614.18-40.28 618.41-30.92L618.41-30.92L618.41-30.92Q622.64-21.56 629.78-14.80L629.78-14.80L629.78-14.80Q636.92-8.04 646.80-4.02L646.80-4.02L646.80-4.02Q656.68 0 667.43 0L667.43 0L667.43 0Q678.17 0 688.06-4.02L688.06-4.02L688.06-4.02Q697.94-8.04 705.08-14.80L705.08-14.80L705.08-14.80Q712.22-21.56 716.45-30.92L716.45-30.92L716.45-30.92Q720.68-40.28 720.68-50.48ZM776.15-52.14L776.15-57.13L806.24-57.13L806.24-57.13Q813.10-57.13 817.85-61.57L817.85-61.57L817.85-61.57Q822.60-66.01 822.60-74.19L822.60-74.19L822.60-74.19Q822.60-80.22 817.61-85.04L817.61-85.04L817.61-85.04Q812.62-89.86 806.24-89.86L806.24-89.86L763.39-89.86L763.39 0L758.40 0L758.40-94.85L806.24-94.85L806.24-94.85Q814.70-94.85 821.15-88.58L821.15-88.58L821.15-88.58Q827.59-82.30 827.59-74.19L827.59-74.19L827.59-74.19Q827.59-64.21 821.35-58.17L821.35-58.17L821.35-58.17Q815.11-52.14 806.24-52.14L806.24-52.14L776.15-52.14ZM776.15-42.16L776.15-47.15L806.24-47.15L806.24-47.15Q817.05-47.15 824.82-54.74L824.82-54.74L824.82-54.74Q832.59-62.33 832.59-74.19L832.59-74.19L832.59-74.19Q832.59-84.38 824.65-92.11L824.65-92.11L824.65-92.11Q816.71-99.84 806.24-99.84L806.24-99.84L753.40-99.84L753.40 0L748.41 0L748.41-104.84L806.24-104.84L806.24-104.84Q814.49-104.84 821.73-100.61L821.73-100.61L821.73-100.61Q828.98-96.38 833.28-89.27L833.28-89.27L833.28-89.27Q837.58-82.16 837.58-74.19L837.58-74.19L837.58-74.19Q837.58-60.53 828.32-51.34L828.32-51.34L828.32-51.34Q819.07-42.16 806.24-42.16L806.24-42.16L776.15-42.16ZM776.15-32.17L776.15-37.16L806.24-37.16L806.24-37.16Q815.95-37.16 824.27-41.95L824.27-41.95L824.27-41.95Q832.59-46.73 837.58-55.30L837.58-55.30L837.58-55.30Q842.57-63.86 842.57-74.19L842.57-74.19L842.57-74.19Q842.57-83.55 837.61-91.77L837.61-91.77L837.61-91.77Q832.66-99.98 824.27-104.91L824.27-104.91L824.27-104.91Q815.88-109.83 806.24-109.83L806.24-109.83L743.42-109.83L743.42 0L738.43 0L738.43-114.82L806.24-114.82L806.24-114.82Q817.12-114.82 826.69-109.24L826.69-109.24L826.69-109.24Q836.26-103.66 841.91-94.26L841.91-94.26L841.91-94.26Q847.56-84.87 847.56-74.19L847.56-74.19L847.56-74.19Q847.56-61.85 842.26-52.49L842.26-52.49L842.26-52.49Q836.95-43.13 827.87-37.86L827.87-37.86L840.77 0L835.50 0L823.16-35.50L823.16-35.50Q820.38-34.39 818.93-33.97L818.93-33.97L830.51 0L825.24 0L813.93-32.80L813.93-32.80Q813.31-32.66 809.50-32.31L809.50-32.31L820.24 0L814.97 0L804.37-32.17L799.86-32.17L809.98 0L804.71 0L794.52-32.17L776.15-32.17ZM773.37-79.88L773.37 0L768.38 0L768.38-84.87L806.24-84.87L806.24-84.87Q810.88-84.87 814.25-81.71L814.25-81.71L814.25-81.71Q817.61-78.56 817.61-74.19L817.61-74.19L817.61-74.19Q817.61-62.13 806.24-62.13L806.24-62.13L776.15-62.13L776.15-67.12L806.24-67.12L806.24-67.12Q809.22-67.12 810.92-68.68L810.92-68.68L810.92-68.68Q812.62-70.24 812.62-74.19L812.62-74.19L812.62-74.19Q812.62-76.62 810.78-78.25L810.78-78.25L810.78-78.25Q808.94-79.88 806.24-79.88L806.24-79.88L773.37-79.88ZM928.89-33.70L907.82-33.70L909.83-38.69L926.88-38.69L928.89-33.70ZM932.92-23.71L903.93-23.71L905.87-28.71L930.77-28.71L932.92-23.71ZM936.80-13.73L900.05-13.73L901.99-18.72L934.72-18.72L936.80-13.73ZM902.20-108.09L859.49 0L854.08 0L899.50-114.82L904.90-114.82L950.25 0L944.91 0L902.20-108.09ZM864.83 0L902.82-96.24L905.67-89.86L870.17 0L864.83 0ZM875.57 0L908.37-83.06L911.00-76.20L880.98 0L875.57 0ZM886.32 0L913.64-69.34L916.27-62.33L891.66 0L886.32 0ZM937.08-114.82L982.49 0L977.08 0L931.74-114.82L937.08-114.82ZM920.99-114.82L926.33-114.82L971.74 0L966.40 0L920.99-114.82ZM910.24-114.82L915.58-114.82L961.00 0L955.59 0L910.24-114.82ZM1073.88 0L1073.88-41.88L1078.87-51.31L1078.87 0L1073.88 0ZM1083.86 0L1083.86-61.02L1088.85-70.45L1088.85 0L1083.86 0ZM1093.84 0L1093.84-79.88L1098.84-89.37L1098.84 0L1093.84 0ZM1097.52-114.82L1060.35-44.24L1057.51-49.44L1091.90-114.82L1097.52-114.82ZM1086.22-114.82L1054.60-55.12L1051.69-60.39L1080.53-114.82L1086.22-114.82ZM1021.18 0L1021.18-50.75L1026.17-41.32L1026.17 0L1021.18 0ZM1011.20 0L1011.20-69.75L1016.19-60.32L1016.19 0L1011.20 0ZM1001.21 0L1001.21-88.75L1006.20-79.25L1006.20 0L1001.21 0ZM996.84-114.82L1041.56-29.95L1035.95-29.95L996.22-105.32L996.22 0L991.23 0L991.23-114.82L996.84-114.82ZM1008.21-114.82L1052.87-29.95L1047.18-29.95L1002.53-114.82L1008.21-114.82ZM1103.83 0L1103.83-105.32L1064.10-29.95L1058.41-29.95L1013.83-114.82L1019.45-114.82L1061.33-35.22L1103.13-114.82L1108.82-114.82L1108.82 0L1103.83 0Z" fill="#000000"></path></g></g><style>text {
  font-size: 64px;
  font-family: Arial Black;
  dominant-baseline: central;
  text-anchor: middle;
}</style></svg>